:FULLY-SPECIFIED
:FORCE-ALL-JOINTS-BE-3DOF
:DEGREES
204
root 4.85894 15.1788 -25.4799 7.38428 1.61368 4.71026
lfemur 3.85364 -4.44412 2.63622
ltibia 8.28076 0 0
lfoot -30.7653 -13.8032 0
ltoes 49.424 0 0
rfemur -29.3457 -18.6076 -7.5907
rtibia 49.5157 0 0
rfoot -27.1532 14.375 0
rtoes 58.5645 0 0
lowerback -2.13105 -1.95009 -0.829331
upperback -0.639892 -2.55139 -6.77627
thorax 0.26174 -1.29189 -6.63594
lowerneck -11.2913 0.141156 5.45116
upperneck 3.38885 -0.750534 2.64627
head 3.10678 -0.17662 -0.141279
lclavicle 1.22713e-14 8.54038e-15 0
lhumerus -58.2617 -44.601 115.66
lradius 54.946 0 0
lwrist 24.3152 0 0
lhand 37.8438 29.4053 0
lfingers 7.12502 0 0
lthumb 60.5661 42.4319 0
rclavicle 1.22713e-14 8.54038e-15 0
rhumerus -19.2258 -10.5901 -27.6786
rradius 84.53 0 0
rwrist -21.8036 0 0
rhand -31.0261 -48.5051 0
rfingers 7.12502 0 0
rthumb -4.47349 -565.864 0
205
root 4.82778 15.1466 -25.4952 7.4593 1.11836 4.72691
lfemur 4.04986 -4.28408 2.52894
ltibia 8.34284 0 0
lfoot -31.6715 -13.0628 0
ltoes 49.1402 0 0
rfemur -30.0728 -19.133 -7.42421
rtibia 50.0498 0 0
rfoot -27.1957 15.2666 0
rtoes 58.9589 0 0
lowerback -1.99603 -1.89526 -0.803451
upperback -0.650433 -2.48693 -6.78751
thorax 0.180125 -1.26103 -6.65452
lowerneck -11.1812 0.311277 5.71391
upperneck 3.35736 -0.545089 2.50716
head 3.07279 -0.0786217 -0.219727
lclavicle 9.43039e-15 9.89867e-15 0
lhumerus -58.5811 -44.8294 115.925
lradius 55.0012 0 0
lwrist 24.6599 0 0
lhand 37.5615 29.2846 0
lfingers 7.12502 0 0
lthumb 60.3294 42.5954 0
rclavicle 9.43039e-15 9.89867e-15 0
rhumerus -16.8356 -15.2957 -25.0936
rradius 81.3525 0 0
rwrist -22.0422 0 0
rhand -35.881 -51.9328 0
rfingers 7.12502 0 0
rthumb -9.11054 -580.588 0
206
root 4.7996 15.1176 -25.5091 7.52715 0.67037 4.74196
lfemur 4.22733 -4.13934 2.43192
ltibia 8.39898 0 0
lfoot -32.4911 -12.3933 0
ltoes 48.8836 0 0
rfemur -30.7304 -19.6081 -7.27364
rtibia 50.5329 0 0
rfoot -27.234 16.0729 0
rtoes 59.3156 0 0
lowerback -1.87391 -1.84567 -0.780044
upperback -0.659967 -2.42863 -6.79768
thorax 0.10631 -1.23311 -6.67133
lowerneck -11.0815 0.46514 5.95154
upperneck 3.32888 -0.35928 2.38134
head 3.04206 0.01001 -0.290677
lclavicle 6.86103e-15 1.11271e-14 0
lhumerus -58.8699 -45.036 116.165
lradius 55.0512 0 0
lwrist 24.9716 0 0
lhand 37.3062 29.1755 0
lfingers 7.12502 0 0
lthumb 60.1153 42.7432 0
rclavicle 6.86103e-15 1.11271e-14 0
rhumerus -14.6738 -19.5516 -22.7556
rradius 78.4786 0 0
rwrist -22.258 0 0
rhand -40.2719 -55.0329 0
rfingers 7.12502 0 0
rthumb -13.3044 -593.904 0
207
root 4.77505 15.0923 -25.5211 7.58624 0.280246 4.75507
lfemur 4.38187 -4.01329 2.34743
ltibia 8.44788 0 0
lfoot -33.2048 -11.8102 0
ltoes 48.6601 0 0
rfemur -31.303 -20.0219 -7.14251
rtibia 50.9535 0 0
rfoot -27.2675 16.7752 0
rtoes 59.6262 0 0
lowerback -1.76756 -1.80249 -0.75966
upperback -0.66827 -2.37786 -6.80653
thorax 0.0420288 -1.2088 -6.68596
lowerneck -10.9947 0.599129 6.15848
upperneck 3.30408 -0.19747 2.27177
head 3.01529 0.0871941 -0.352463
lclavicle 4.62352e-15 1.21969e-14 0
lhumerus -59.1215 -45.2159 116.374
lradius 55.0947 0 0
lwrist 25.2431 0 0
lhand 37.0839 29.0805 0
lfingers 7.12502 0 0
lthumb 59.9288 42.8719 0
rclavicle 4.62352e-15 1.21969e-14 0
rhumerus -12.7912 -23.2578 -20.7196
rradius 75.9759 0 0
rwrist -22.4459 0 0
rhand -44.0957 -57.7326 0
rfingers 7.12502 0 0
rthumb -16.9566 -605.501 0
208
root 4.75481 15.0714 -25.5311 7.63497 -0.0414977 4.76589
lfemur 4.50933 -3.90934 2.27774
ltibia 8.4882 0 0
lfoot -33.7934 -11.3293 0
ltoes 48.4758 0 0
rfemur -31.7753 -20.3632 -7.03437
rtibia 51.3005 0 0
rfoot -27.2951 17.3543 0
rtoes 59.8824 0 0
lowerback -1.67985 -1.76687 -0.742849
upperback -0.675118 -2.33599 -6.81383
thorax -0.0109851 -1.18875 -6.69803
lowerneck -10.9231 0.709633 6.32915
upperneck 3.28362 -0.0640215 2.1814
head 2.99322 0.150849 -0.403419
lclavicle 2.7782e-15 1.30792e-14 0
lhumerus -59.3289 -45.3643 116.546
lradius 55.1305 0 0
lwrist 25.4669 0 0
lhand 36.9005 29.0021 0
lfingers 7.12502 0 0
lthumb 59.775 42.9781 0
rclavicle 2.7782e-15 1.30792e-14 0
rhumerus -11.2386 -26.3144 -19.0405
rradius 73.9118 0 0
rwrist -22.6009 0 0
rhand -47.2492 -59.9591 0
rfingers 7.12502 0 0
rthumb -19.9686 -615.064 0
209
root 4.73954 15.0556 -25.5386 7.67175 -0.284339 4.77405
lfemur 4.60553 -3.83088 2.22515
ltibia 8.51864 0 0
lfoot -34.2377 -10.9663 0
ltoes 48.3366 0 0
rfemur -32.1318 -20.6208 -6.95275
rtibia 51.5623 0 0
rfoot -27.3159 17.7914 0
rtoes 60.0758 0 0
lowerback -1.61365 -1.73999 -0.730161
upperback -0.680286 -2.30438 -6.81934
thorax -0.0509983 -1.17362 -6.70714
lowerneck -10.8691 0.793037 6.45797
upperneck 3.26818 0.0367009 2.1132
head 2.97656 0.198894 -0.441879
lclavicle 1.38542e-15 1.37451e-14 0
lhumerus -59.4855 -45.4763 116.676
lradius 55.1576 0 0
lwrist 25.6359 0 0
lhand 36.7621 28.9429 0
lfingers 7.12502 0 0
lthumb 59.659 43.0582 0
rclavicle 1.38542e-15 1.37451e-14 0
rhumerus -10.0668 -28.6214 -17.7732
rradius 72.354 0 0
rwrist -22.7178 0 0
rhand -49.6294 -61.6395 0
rfingers 7.12502 0 0
rthumb -22.242 -622.283 0
